<svg width="85" height="84" viewBox="0 0 85 84" fill="none" xmlns="http://www.w3.org/2000/svg">
<path d="M38.1602 40.7022C38.1602 40.7022 42.1322 40.4004 42.1322 35.6477C42.1322 30.899 39.4383 28.5581 35.3207 28.5581L21.2148 28.5358V54.7792H35.6487C35.6487 54.7792 42.8657 55.0075 42.8657 46.9062C42.8657 46.9062 43.3958 40.7022 38.1602 40.7022ZM26.4635 32.4723H33.6805C33.6805 32.4723 36.15 32.513 36.15 35.7147C36.15 39.0331 33.6805 39.0331 33.6805 39.0331H26.4635V32.4723ZM34.3366 50.8427H26.4635V42.9696H34.3366C34.3366 42.9696 38.2731 43.0103 38.2731 46.9062C38.2731 50.802 34.9034 50.8427 34.3366 50.8427Z" fill="#005CFF"/>
<path d="M54.0194 35.0972C44.1611 35.0972 44.1782 44.9385 44.1782 44.9385C44.1782 44.9385 43.5221 54.7798 54.0194 54.7798C54.0194 54.7798 63.2046 54.7798 63.2046 46.9067H57.9559C57.9559 46.9067 57.9559 50.8433 54.0194 50.8433C54.0194 50.8433 50.0829 50.8433 50.0829 45.5946C50.0829 45.5946 60.5803 45.5946 63.2046 45.5946C63.2046 42.9702 63.2046 35.0972 54.0194 35.0972ZM50.0829 42.9702C50.0829 42.9702 49.9963 39.0337 54.0194 39.0337C58.0412 39.0337 57.9559 42.9702 57.9559 42.9702H50.0829Z" fill="#005CFF"/>
<path d="M59.2685 31.1603H48.7711V33.7847H59.2685V31.1603Z" fill="#005CFF"/>
</svg>
