<svg width="85" height="84" viewBox="0 0 85 84" fill="none" xmlns="http://www.w3.org/2000/svg">
<path d="M42.8444 22.377C53.676 22.377 62.4398 31.1407 62.4398 41.9559C62.4398 52.7711 53.676 61.5513 42.8444 61.5513C32.0128 61.5513 23.249 52.7875 23.249 41.9723C23.249 31.1571 32.0128 22.377 42.8444 22.377Z" fill="#E74D89"/>
<path d="M42.8466 62.9465C31.2601 62.9465 21.8398 53.5427 21.8398 41.9725C21.8398 30.386 31.2601 20.9822 42.8466 20.9822C54.4331 20.9822 63.8534 30.386 63.8534 41.9561C63.8534 53.5262 54.4331 62.9465 42.8466 62.9465ZM60.5546 44.8281C59.9474 44.6312 55.0075 43.1706 49.3784 44.0568C51.7252 50.4901 52.6771 55.7418 52.8576 56.825C56.8949 54.1171 59.7669 49.8172 60.5546 44.8281ZM49.8543 58.4825C49.5917 56.907 48.5414 51.4256 46.0304 44.8938C45.9976 44.9102 45.9484 44.9266 45.9156 44.9266C35.7896 48.4551 32.1627 55.4628 31.8345 56.1193C34.8706 58.4825 38.6945 59.8939 42.8466 59.8939C45.3247 59.9103 47.7044 59.4016 49.8543 58.4825ZM29.5204 53.9694C29.9307 53.2801 34.8542 45.14 44.1103 42.1366C44.3401 42.0546 44.5862 41.9889 44.816 41.9233C44.3729 40.9058 43.8805 39.8883 43.3554 38.8872C34.3947 41.5622 25.6966 41.4474 24.9088 41.4309C24.9088 41.6115 24.8924 41.792 24.8924 41.9725C24.9088 46.5842 26.6484 50.7855 29.5204 53.9694ZM25.2863 38.3128C26.0904 38.3292 33.4756 38.362 41.8783 36.13C38.9078 30.8455 35.6912 26.4144 35.2317 25.7743C30.1933 28.1376 26.4515 32.7657 25.2863 38.3128ZM38.6453 24.5599C39.1376 25.2164 42.4035 29.6475 45.3412 35.0469C51.7252 32.6508 54.4167 29.0402 54.745 28.5807C51.5775 25.7743 47.409 24.0675 42.8466 24.0675C41.4024 24.0675 39.991 24.2481 38.6453 24.5599ZM56.7308 30.6486C56.3533 31.1573 53.35 35.014 46.7197 37.7219C47.13 38.5753 47.5403 39.4452 47.9178 40.315C48.0491 40.6268 48.1804 40.9386 48.3116 41.234C54.2854 40.4791 60.21 41.6935 60.8008 41.8084C60.7516 37.5906 59.2417 33.7011 56.7308 30.6486Z" fill="white"/>
</svg>
