<svg width="84" height="84" viewBox="0 0 84 84" fill="none" xmlns="http://www.w3.org/2000/svg">
<path d="M33.5581 67.0624C38.186 67.0624 41.9376 63.3108 41.9376 58.6829V50.3035H33.5581C28.9303 50.3035 25.1787 54.0551 25.1787 58.6829C25.1787 63.3108 28.9303 67.0624 33.5581 67.0624Z" fill="#0ACF83"/>
<path d="M25.1787 41.9241C25.1787 37.2962 28.9303 33.5446 33.5581 33.5446H41.9376V50.3035H33.5581C28.9303 50.3035 25.1787 46.5519 25.1787 41.9241Z" fill="#A259FF"/>
<path d="M25.1787 25.1652C25.1787 20.5374 28.9303 16.7858 33.5581 16.7858H41.9376L41.9376 33.5446H33.5581C28.9303 33.5446 25.1787 29.793 25.1787 25.1652Z" fill="#F24E1E"/>
<path d="M41.9376 16.7858L50.317 16.7858C54.9448 16.7858 58.6964 20.5374 58.6964 25.1652C58.6964 29.793 54.9448 33.5446 50.317 33.5446L41.9376 33.5446L41.9376 16.7858Z" fill="#FF7262"/>
<path d="M58.6964 41.9241C58.6964 46.5519 54.9448 50.3035 50.317 50.3035C45.6892 50.3035 41.9376 46.5519 41.9376 41.9241C41.9376 37.2962 45.6892 33.5446 50.317 33.5446C54.9448 33.5446 58.6964 37.2962 58.6964 41.9241Z" fill="#1ABCFE"/>
</svg>
