<svg width="85" height="84" viewBox="0 0 85 84" fill="none" xmlns="http://www.w3.org/2000/svg">
<path d="M21.3861 60.1653H29.1616V41.2819L18.0537 32.9509V56.8329C18.0537 58.6769 19.5477 60.1653 21.3861 60.1653Z" fill="#4285F4"/>
<path d="M55.8206 60.1653H63.5961C65.44 60.1653 66.9285 58.6713 66.9285 56.8329V32.9509L55.8206 41.2819" fill="#34A853"/>
<path d="M55.8206 26.8418V41.2819L66.9285 32.9509V28.508C66.9285 24.387 62.2243 22.0377 58.9308 24.5092" fill="#FBBC04"/>
<path d="M29.1616 41.2819L29.1616 26.8416L42.4911 36.8387L55.8206 26.8418V41.2819L42.4911 51.279" fill="#EA4335"/>
<path d="M18.0537 28.508V32.9509L29.1616 41.2819L29.1616 26.8416L26.0514 24.5092C22.7524 22.0377 18.0537 24.387 18.0537 28.508Z" fill="#C5221F"/>
</svg>
