<svg width="85" height="84" viewBox="0 0 85 84" fill="none" xmlns="http://www.w3.org/2000/svg">
<path d="M35.4487 42.2194C35.4487 38.0009 38.8696 34.5802 43.0907 34.5802C47.3118 34.5802 50.7345 38.0009 50.7345 42.2194C50.7345 46.4379 47.3118 49.8586 43.0907 49.8586C38.8696 49.8586 35.4487 46.4379 35.4487 42.2194ZM31.3166 42.2194C31.3166 48.7183 36.5879 53.9864 43.0907 53.9864C49.5935 53.9864 54.8648 48.7183 54.8648 42.2194C54.8648 35.7205 49.5935 30.4524 43.0907 30.4524C36.5879 30.4524 31.3166 35.7205 31.3166 42.2194ZM52.5793 29.9858C52.5791 30.5297 52.7403 31.0615 53.0424 31.5138C53.3446 31.9661 53.7742 32.3188 54.2769 32.5271C54.7796 32.7354 55.3328 32.7901 55.8666 32.6842C56.4004 32.5783 56.8908 32.3166 57.2757 31.9322C57.6607 31.5478 57.923 31.0579 58.0293 30.5245C58.1357 29.9911 58.0815 29.4382 57.8734 28.9356C57.6653 28.4331 57.3128 28.0034 56.8605 27.7011C56.4081 27.3988 55.8762 27.2373 55.332 27.237H55.3309C54.6014 27.2374 53.9019 27.5271 53.386 28.0425C52.8701 28.5579 52.58 29.2568 52.5793 29.9858ZM33.8272 60.8723C31.5916 60.7706 30.3765 60.3984 29.569 60.084C28.4985 59.6675 27.7347 59.1714 26.9316 58.3699C26.1285 57.5684 25.6314 56.8058 25.2165 55.7359C24.9017 54.9293 24.5293 53.7145 24.4277 51.4803C24.3165 49.0648 24.2943 48.3392 24.2943 42.2196C24.2943 36.1 24.3184 35.3764 24.4277 32.9589C24.5295 30.7247 24.9046 29.5123 25.2165 28.7033C25.6332 27.6334 26.1296 26.87 26.9316 26.0674C27.7336 25.2648 28.4967 24.768 29.569 24.3533C30.3762 24.0387 31.5916 23.6666 33.8272 23.565C36.2441 23.4539 36.9702 23.4317 43.0907 23.4317C49.2113 23.4317 49.938 23.4558 52.357 23.565C54.5925 23.6668 55.8056 24.0417 56.6151 24.3533C57.6857 24.768 58.4495 25.2659 59.2526 26.0674C60.0557 26.8689 60.5509 27.6334 60.9677 28.7033C61.2825 29.5099 61.6549 30.7247 61.7565 32.9589C61.8676 35.3764 61.8898 36.1 61.8898 42.2196C61.8898 48.3392 61.8676 49.0628 61.7565 51.4803C61.6547 53.7145 61.2805 54.9289 60.9677 55.7359C60.5509 56.8058 60.0546 57.5692 59.2526 58.3699C58.4506 59.1707 57.6857 59.6675 56.6151 60.084C55.808 60.3986 54.5925 60.7708 52.357 60.8723C49.94 60.9834 49.214 61.0056 43.0907 61.0056C36.9674 61.0056 36.2434 60.9834 33.8272 60.8723ZM33.6373 19.4424C31.1963 19.5535 29.5283 19.9403 28.0717 20.5068C26.5631 21.0918 25.286 21.8766 24.0098 23.15C22.7336 24.4234 21.9504 25.7017 21.365 27.2094C20.7982 28.6661 20.4112 30.3322 20.3 32.7717C20.187 35.2151 20.1611 35.9962 20.1611 42.2194C20.1611 48.4426 20.187 49.2238 20.3 51.6671C20.4112 54.1069 20.7982 55.7728 21.365 57.2295C21.9504 58.7362 22.7338 60.016 24.0098 61.2889C25.2858 62.5617 26.5631 63.3454 28.0717 63.9321C29.5311 64.4985 31.1963 64.8854 33.6373 64.9965C36.0834 65.1076 36.8638 65.1352 43.0907 65.1352C49.3176 65.1352 50.0993 65.1094 52.5441 64.9965C54.9853 64.8854 56.6522 64.4985 58.1098 63.9321C59.6174 63.3454 60.8954 62.5622 62.1716 61.2889C63.4478 60.0155 64.2294 58.7362 64.8164 57.2295C65.3832 55.7728 65.7721 54.1067 65.8814 51.6671C65.9926 49.2219 66.0184 48.4426 66.0184 42.2194C66.0184 35.9962 65.9926 35.2151 65.8814 32.7717C65.7703 30.332 65.3832 28.6652 64.8164 27.2094C64.2294 25.7026 63.4457 24.4254 62.1716 23.15C60.8974 21.8746 59.6174 21.0918 58.1116 20.5068C56.6522 19.9403 54.9851 19.5516 52.5459 19.4424C50.1011 19.3313 49.3195 19.3036 43.0925 19.3036C36.8656 19.3036 36.0834 19.3294 33.6373 19.4424Z" fill="url(#paint0_linear_31_735)"/>
<defs>
<linearGradient id="paint0_linear_31_735" x1="65.1371" y1="65.1352" x2="19.3054" y2="19.2779" gradientUnits="userSpaceOnUse">
<stop stop-color="#FBE18A"/>
<stop offset="0.21" stop-color="#FCBB45"/>
<stop offset="0.38" stop-color="#F75274"/>
<stop offset="0.52" stop-color="#D53692"/>
<stop offset="0.74" stop-color="#8F39CE"/>
<stop offset="1" stop-color="#5B4FE9"/>
</linearGradient>
</defs>
</svg>
