<svg width="85" height="84" viewBox="0 0 85 84" fill="none" xmlns="http://www.w3.org/2000/svg">
<path fill-rule="evenodd" clip-rule="evenodd" d="M22.9254 19.3036C21.0541 19.3036 19.5361 20.7754 19.5361 22.5886V61.8788C19.5361 63.6922 21.0543 65.1627 22.9254 65.1627H62.006C63.878 65.1627 65.3953 63.692 65.3953 61.8783V22.5886C65.3953 20.7754 63.878 19.3036 62.006 19.3036H22.9254ZM33.4719 37.0358V57.6818H26.6095V37.0358H33.4719ZM33.9242 30.6508C33.9242 32.6321 32.4347 34.2175 30.0422 34.2175L29.9972 34.2173C27.694 34.2173 26.205 32.6319 26.205 30.6507C26.205 28.6244 27.739 27.0833 30.0877 27.0833C32.4347 27.0833 33.8795 28.6244 33.9242 30.6508ZM44.1322 57.6818H37.2703C37.2703 57.6818 37.3603 38.9734 37.2707 37.0365H44.1327V39.9589C45.0449 38.5524 46.6775 36.5518 50.3174 36.5518C54.8322 36.5518 58.2172 39.5027 58.2172 45.844V57.6818H51.3555V46.638C51.3555 43.8622 50.3619 41.9691 47.8794 41.9691C45.9832 41.9691 44.8541 43.2458 44.3583 44.4792C44.177 44.9193 44.1322 45.5372 44.1322 46.1534V57.6818Z" fill="#006699"/>
</svg>
